<svg width="46" height="35" viewBox="0 0 46 35" fill="none" xmlns="http://www.w3.org/2000/svg">
<rect width="46" height="35" fill="white"/>
<path d="M3.05469 19.9183V15.6683L20.0547 8.18253V13.0724L8.41548 17.745L8.57244 17.4915V18.0952L8.41548 17.8416L20.0547 22.5142V27.4041L3.05469 19.9183ZM34.2536 30.3381C32.4505 30.3381 30.8447 30.0282 29.4361 29.4084C28.0355 28.7805 26.9287 27.9193 26.1158 26.8246C25.3108 25.7218 24.8963 24.45 24.8722 23.0092H30.1364C30.1686 23.6129 30.3658 24.1442 30.728 24.603C31.0982 25.0537 31.5893 25.4039 32.201 25.6534C32.8127 25.9029 33.5009 26.0277 34.2656 26.0277C35.0625 26.0277 35.7668 25.8868 36.3786 25.6051C36.9903 25.3234 37.4692 24.933 37.8153 24.4339C38.1615 23.9349 38.3345 23.3594 38.3345 22.7074C38.3345 22.0473 38.1494 21.4638 37.7791 20.9567C37.4169 20.4415 36.8937 20.0391 36.2095 19.7493C35.5334 19.4595 34.7285 19.3146 33.7947 19.3146H31.4886V15.4751H33.7947C34.5836 15.4751 35.2798 15.3383 35.8835 15.0646C36.4953 14.791 36.9702 14.4126 37.3082 13.9297C37.6463 13.4387 37.8153 12.8672 37.8153 12.2152C37.8153 11.5954 37.6664 11.0521 37.3686 10.5852C37.0788 10.1103 36.6683 9.74006 36.1371 9.47443C35.6139 9.20881 35.0021 9.07599 34.3018 9.07599C33.5935 9.07599 32.9455 9.20478 32.358 9.46236C31.7704 9.71188 31.2995 10.0701 30.9453 10.5369C30.5911 11.0038 30.402 11.5511 30.3778 12.179H25.3672C25.3913 10.7543 25.7978 9.49858 26.5866 8.41193C27.3755 7.32528 28.438 6.47609 29.7741 5.86435C31.1184 5.24455 32.6357 4.93466 34.326 4.93466C36.0324 4.93466 37.5256 5.24455 38.8054 5.86435C40.0852 6.48414 41.0793 7.32126 41.7876 8.37571C42.504 9.42211 42.8582 10.5973 42.8501 11.9013C42.8582 13.2857 42.4276 14.4408 41.5582 15.3665C40.697 16.2921 39.5741 16.8797 38.1896 17.1293V17.3224C40.0088 17.5559 41.3932 18.1877 42.343 19.218C43.3009 20.2403 43.7758 21.5201 43.7678 23.0575C43.7758 24.4661 43.3693 25.7178 42.5483 26.8125C41.7353 27.9072 40.6125 28.7685 39.1797 29.3963C37.7469 30.0241 36.1049 30.3381 34.2536 30.3381Z" fill="#FFB990"/>
</svg>
